<svg id="coca-cola" xmlns="http://www.w3.org/2000/svg" width="112.462" height="35" viewBox="0 0 112.462 35">
  <g id="c">
    <g id="Grupo_9832" data-name="Grupo 9832">
      <path id="Trazado_11657" data-name="Trazado 11657" d="M186,5.265a17.311,17.311,0,0,1-9.045,4.86,10.671,10.671,0,0,1-4.218-.179c.647-.926,1.49-1.9,2.249-2.8,5.34.653,10.038-1.986,13.715-5.541l.112.028A15.029,15.029,0,0,1,186,5.27" transform="translate(-76.353 -0.713)" fill="#121212"/>
      <path id="Trazado_11658" data-name="Trazado 11658" d="M99.563,18.863l-.318.179-2.734-.1c-.318-.212.061-.463.151-.7l1.233-2.014.418-.139,2.567.067.033.418-1.339,2.288" transform="translate(-42.603 -7.114)" fill="#121212"/>
      <path id="Trazado_11659" data-name="Trazado 11659" d="M48.323,35a18.465,18.465,0,0,0-7.912-2.455c-1.59.084-3.348.307-4.458,1.746-.167.156-.352.536-.619.368-3.359-4.715-9.234-3.671-13.843-2.818-3.8.848-7.845,2.1-11.768,2.477-3.4.279-6.969-.865-8.7-3.984-1.975-3.945-.776-8.866.815-12.577a36.582,36.582,0,0,1,13-14.976C17.44,1.257,20.319-.161,23.36.018a2.829,2.829,0,0,1,1.975,1.239c.9,1.7-.056,3.571-1.1,4.849a1.972,1.972,0,0,1-1.869.7l-.485-.6a2.48,2.48,0,0,1,2.55-2.874A1.257,1.257,0,0,0,24.5,2.094c-.513-.809-1.462-.658-2.182-.536-3.465,1.06-6.138,3.755-8.693,6.495C9.528,12.728,6.063,18,4.885,24.061c-.329,2.522-.167,5.267,1.847,6.969,4.536,3.348,10.507.575,15.316-.285,6.835-1.49,14.591-3.844,21.169.1a25.057,25.057,0,0,1,5.267,3.95L48.318,35" transform="translate(0.005 -0.003)" fill="#121212"/>
      <path id="Trazado_11660" data-name="Trazado 11660" d="M54.567,28.432c-.073.318-.268.67-.056.976.128.3.519.173.753.106,2.048-1.144,3.51-3.387,4.932-5.284l.714-.028-.167.653c-1.908,2.639-3.9,5.407-6.618,7.248a3.459,3.459,0,0,1-2.868.7,1.706,1.706,0,0,1-.865-1.7l.067-1-.173.033c-1.428,1.278-2.952,3.047-5.061,2.6A2.049,2.049,0,0,1,43.9,30.865a8.751,8.751,0,0,1,.491-2.918l-.033-.039c-2.321,2.126-5.089,5.184-8.554,4.62a3.091,3.091,0,0,1-1.981-1.663c-.926-2.556.307-5.195,1.529-7.27a4.456,4.456,0,0,0,.519-.971l-.033-.067c-.619.162-1.317.34-1.942.458a34.991,34.991,0,0,1-3.839,5.423c-1.668,1.7-3.459,3.655-5.864,4.079a2.338,2.338,0,0,1-2.243-.748c-1.261-1.964-.24-4.564.5-6.461,1.875-3.878,5.055-7.773,8.944-9.592a3.742,3.742,0,0,1,3.331-.128,3.167,3.167,0,0,1,.82,3.2A17.226,17.226,0,0,1,34.514,21.8c.212.212.519-.033.792-.056,3.192-1.183,4.955-4.732,8.219-5.9a3.753,3.753,0,0,1,3.18-.039,2.142,2.142,0,0,1,1.055,1.724,4.464,4.464,0,0,1-2.533,4.162c-.407.045-.8-.022-.971-.413a2.319,2.319,0,0,1,.831-2.288,1.92,1.92,0,0,1,1.551-.552c.251-.206.179-.524.179-.8-.1-.234-.246-.547-.558-.625a2.534,2.534,0,0,0-2,.591,20.668,20.668,0,0,0-6.512,9.29,3.417,3.417,0,0,0,.073,2.673,1.559,1.559,0,0,0,1.378.692,5.727,5.727,0,0,0,2.812-1.389c4.525-3.883,6.958-9.764,12.158-12.794,1.077-.446,2.461-.87,3.432.045l.513.441c.307-.268.379-.759.8-.893h2.706l.206.452L54.573,28.443m2.885-10.769a.894.894,0,0,0-.552-.625c-1.568.067-2.639,1.529-3.6,2.6-2.014,2.634-4.207,5.267-5.089,8.425-.112.491-.257,1.138.234,1.451l.764.067c1.557-.831,2.4-2.388,3.359-3.744,1.7-2.712,3.286-5.44,4.888-8.18M34.134,20.314c.329-1.016.792-2.505-.011-3.409a1.887,1.887,0,0,0-1.964.179A3.167,3.167,0,0,0,30.6,20.13a2.839,2.839,0,0,0,2.014,1.7c.273-.006.591.212.826-.006l.7-1.512Zm-1.529,2.974.045-.441a4.95,4.95,0,0,1-3.164-2.26l-.24-.022a24.135,24.135,0,0,0-3.231,5.479c-.273.893-.792,2.115-.022,2.968.34.418,1,.312,1.445.167a12.057,12.057,0,0,0,3.61-3.459l1.557-2.427Z" transform="translate(-9.436 -6.74)" fill="#121212"/>
      <path id="Trazado_11661" data-name="Trazado 11661" d="M133.994,8.324c-2.935-1.518-5.691-3.521-8.671-4.843-1.278-.446-2.8-1-4.118-.591l-.173.173c.245,2.277-.664,4.3-1.59,6.21-1.523,2.36-3.359,4.849-6.138,5.468a1.693,1.693,0,0,1-1.724-.725c-.792-1.378-.033-2.935.591-4.19a17.943,17.943,0,0,1,7.053-7.215l.05-.268a3.872,3.872,0,0,0-2.907.34c-5.206,2.461-9.084,7.086-12.621,11.611-3.013,4.3-5.742,8.8-6.333,14.15a3.919,3.919,0,0,0,1.674,3.867c1.825,1.077,3.934-.268,5.435-1.49a15.23,15.23,0,0,0,5.5-9.513c0-.67.033-1.462-.619-1.813-1.183-.312-2.254.759-2.913,1.7a8.952,8.952,0,0,0-1.7,3.906,8.333,8.333,0,0,1-1.512.759A12.8,12.8,0,0,0,100.6,28.1l-.24-.056a14.8,14.8,0,0,1,1.361-4.547c1.278-2.812,3.906-5.34,6.952-5.636a2.082,2.082,0,0,1,1.942,1.088c.725,1.456.279,3.42-.173,4.877a19.939,19.939,0,0,1-9.491,10.786c-2.176.831-4.648.971-6.45-.831-2.282-2.282-2.076-6.16-1.077-8.967a40.133,40.133,0,0,1,7.382-12.789c4.118-4.815,9.05-9.212,15.1-10.892,1.5-.34,3.409-.446,4.536.8.731-.067,1.35-.446,2.059-.58a10.319,10.319,0,0,1,7.795.926c2.148,1.01,4.19,2.254,6.244,3.432A26.341,26.341,0,0,1,134,8.335M120.079,4.876c.039-.452.246-1.216-.179-1.5A16.556,16.556,0,0,0,112.579,11c-.307.77-.742,1.919-.056,2.6a1.347,1.347,0,0,0,1.038.173,8.677,8.677,0,0,0,3.331-2.522,13.09,13.09,0,0,0,3.192-6.378" transform="translate(-40.978 -0.402)" fill="#121212"/>
      <path id="Trazado_11662" data-name="Trazado 11662" d="M154.539,27.542a25.219,25.219,0,0,0-2.355,4.19l.067.658.731.045c2.037-1.155,3.593-3.465,4.994-5.418l.737-.084-.212.77c-2.154,3.03-4.587,6.495-8.118,7.839a1.8,1.8,0,0,1-1.864-.368,2.824,2.824,0,0,1-.329-2.472l-.022-.022c-1.244,1.166-2.533,2.461-4.129,2.885a2.2,2.2,0,0,1-2.076-.636,4.393,4.393,0,0,1-.34-3.158l-.1.045c-1.328,1.451-2.706,2.929-4.475,3.532a2.109,2.109,0,0,1-2.148-.658c-1.038-1.278-.485-3.158-.151-4.57.318-1.356.876-2.634,1.294-3.956l-.145-.056a16.152,16.152,0,0,1-2,.229c-1.936,3.27-4.425,6.863-7.934,8.626a3.448,3.448,0,0,1-2.812.273c-1.205-.642-1.311-2.037-1.188-3.281a16.485,16.485,0,0,1,2.3-5.853c2.009-3.019,4.542-6.255,7.934-7.594a3.493,3.493,0,0,1,2.773-.112c1.1.776,1.027,2.087.859,3.3a14.258,14.258,0,0,1-1.384,3.6c.067.273.43.139.619.139a4.863,4.863,0,0,0,1.5-.458c4.056-8.107,9.452-16.137,17.046-21.839,1.278-.815,2.667-1.791,4.33-1.618.312.128.742.407.8.8.279,1.624-.619,2.9-1.311,4.218l-.742.139.05-.519c.474-1.032,1.205-2.037,1.138-3.259l-.458-.268c-1.763.58-2.84,1.936-4.218,3.175-4.268,4.2-7.309,9.29-10.367,14.29a19.289,19.289,0,0,0-1.339,2.561,8.551,8.551,0,0,0,1.9-1.278A76.7,76.7,0,0,0,154.1,10.407a.969.969,0,0,1,.781-.19l-.106.524a60.738,60.738,0,0,1-14.3,13.827,23.943,23.943,0,0,0-2.249,6.344,1.884,1.884,0,0,0,.246,1.428.728.728,0,0,0,.759.2c1.724-.714,2.55-2.6,3.711-3.945,2.36-3.532,5.089-7.549,8.872-9.664a3.213,3.213,0,0,1,2.974-.206,8.131,8.131,0,0,1,.9.831c.552-.246.452-1.205,1.244-1.066l2.561.017.106.43-5.055,8.626M134.87,22.052c.089-.826.279-1.931-.524-2.449a1.8,1.8,0,0,0-1.607.279,3.037,3.037,0,0,0-1.713,3.147,3.006,3.006,0,0,0,1.724,2.037l.77.117a13.37,13.37,0,0,0,1.35-3.13m-1.953,4.084a5.437,5.437,0,0,1-3.047-2.622l-.106-.045a21.033,21.033,0,0,0-3.387,5.719c-.223.831-.625,1.886-.073,2.673a1.165,1.165,0,0,0,1.1.379c1.529-.452,2.606-1.83,3.632-3.08a14.9,14.9,0,0,0,1.875-3.03m21.867-6.037a1.689,1.689,0,0,0-1.6.4c-2.662,2.042-4.43,4.81-6.166,7.572a8.424,8.424,0,0,0-1.25,3.794l.385.519c.831.307,1.479-.519,2.076-.965,2.695-3.225,4.542-7.047,6.785-10.5.173-.273-.033-.636-.24-.815" transform="translate(-53.889 -0.666)" fill="#121212"/>
    </g>
  </g>
</svg>
