<svg id="Google_2015_logo_colorless_mourning_period" xmlns="http://www.w3.org/2000/svg" width="105.394" height="34.693" viewBox="0 0 105.394 34.693">
  <path id="Path_1181" data-name="Path 1181" d="M88.644,33.669A8.7,8.7,0,1,1,79.947,25,8.562,8.562,0,0,1,88.644,33.669Zm-3.807,0a4.9,4.9,0,1,0-9.78,0,4.9,4.9,0,1,0,9.78,0Z" transform="translate(-43.541 -15.413)" fill="#121212"/>
  <path id="Path_1182" data-name="Path 1182" d="M136.644,33.669a8.7,8.7,0,1,1-8.7-8.669A8.562,8.562,0,0,1,136.644,33.669Zm-3.807,0a4.9,4.9,0,1,0-9.78,0,4.9,4.9,0,1,0,9.78,0Z" transform="translate(-72.779 -15.413)" fill="#121212"/>
  <path id="Path_1183" data-name="Path 1183" d="M183.85,25.524V41.088c0,6.4-3.776,9.017-8.24,9.017A8.256,8.256,0,0,1,167.926,45l3.315-1.38a4.789,4.789,0,0,0,4.366,3.076c2.857,0,4.628-1.763,4.628-5.081V40.365H180.1a5.9,5.9,0,0,1-4.565,1.97,8.675,8.675,0,0,1,0-17.335,6.008,6.008,0,0,1,4.565,1.939h.133V25.528h3.616ZM180.5,33.7c0-3.053-2.036-5.285-4.628-5.285a5.013,5.013,0,0,0-4.827,5.285,4.976,4.976,0,0,0,4.827,5.222C178.467,38.923,180.5,36.722,180.5,33.7Z" transform="translate(-102.006 -15.413)" fill="#121212"/>
  <path id="Path_1184" data-name="Path 1184" d="M219.213,3V28.406H215.5V3Z" transform="translate(-131.408 -2.012)" fill="#121212"/>
  <path id="Path_1185" data-name="Path 1185" d="M241.961,36.517l2.955,1.97a8.629,8.629,0,0,1-7.223,3.842,8.482,8.482,0,0,1-8.6-8.669c0-5.156,3.709-8.669,8.177-8.669,4.5,0,6.7,3.58,7.419,5.515l.395.985-11.589,4.8a4.412,4.412,0,0,0,4.2,2.627A4.948,4.948,0,0,0,241.961,36.517Zm-9.1-3.119,7.747-3.217a3.357,3.357,0,0,0-3.217-1.837A4.755,4.755,0,0,0,232.866,33.4Z" transform="translate(-139.687 -15.407)" fill="#121212"/>
  <path id="Path_1186" data-name="Path 1186" d="M14.013,16.472V12.794H26.407a12.187,12.187,0,0,1,.184,2.22,12.147,12.147,0,0,1-3.186,8.6,12.31,12.31,0,0,1-9.389,3.776A13.651,13.651,0,0,1,.36,13.932,13.651,13.651,0,0,1,14.017.47a12.827,12.827,0,0,1,9.225,3.709l-2.6,2.6a9.375,9.375,0,0,0-6.633-2.627,9.656,9.656,0,0,0-9.654,9.783,9.656,9.656,0,0,0,9.654,9.783,9.006,9.006,0,0,0,6.8-2.693A7.624,7.624,0,0,0,22.8,16.468Z" transform="translate(-0.36 -0.47)" fill="#121212"/>
</svg>
