<svg id="nissan" xmlns="http://www.w3.org/2000/svg" width="58.713" height="50" viewBox="0 0 58.713 50">
  <g id="Layer_1" data-name="Layer 1">
    <path id="Trazado_11844" data-name="Trazado 11844" d="M58.587,25.116c0-1.1.052-2.211-.01-3.311-.148-2.65-.166-2.683-2.816-3.158a1.6,1.6,0,0,1-1.536-1.33,14.206,14.206,0,0,0-1.449-3.464C47.988,5.321,40.636.833,30.925.075a25.894,25.894,0,0,0-25.764,16c-.645,1.662-1.393,2.59-3.185,2.66-1.07.04-1.541.723-1.684,1.794a33.941,33.941,0,0,0-.062,7.749c.293,3.087-.166,2.889,3.208,3.293a1.272,1.272,0,0,1,1.223,1.065A20.583,20.583,0,0,0,6.828,37.4,26.327,26.327,0,0,0,33.091,49.7c9.576-1.508,16.622-6.514,20.493-15.508.75-1.74,1.5-2.763,3.457-2.7.9.03,1.33-.545,1.378-1.471.076-1.636.216-3.266.332-4.9Zm-46.46-8.909a20.092,20.092,0,0,1,26.6-7.761,26.838,26.838,0,0,0,2.38,1.524,18.136,18.136,0,0,1,6.4,7.656,314.691,314.691,0,0,0-35.821-.263C11.619,16.867,11.931,16.554,12.127,16.207Zm31.289,11.87c-1.011-.017-2.035.479-2.389-.906-.1-.406-.477-.3-.766-.308-.761-.01-1.526.035-2.286-.013a1.036,1.036,0,0,0-1.22.728c-.239.62-.314.6-2.133.48.889-1.995,1.745-3.89,2.591-5.8a.89.89,0,0,1,.861-.587c2.335-.194,2.327-.211,3.314,1.941ZM31.592,25.75c-1.06-.091-2.129-.155-3.178-.332-1.272-.209-1.646-.765-1.556-2.076.073-1.06.7-1.634,1.915-1.662,1.446-.03,2.894.008,4.34-.017.5-.008.776.085.763.68-.013.537-.185.73-.733.713-1.18-.035-2.362-.02-3.542,0-.332,0-.866-.181-.861.426,0,.567.524.434.871.472.946.1,1.9.14,2.841.281,1.3.194,1.769.876,1.662,2.261-.088,1.134-.6,1.571-1.907,1.624-.381.015-.761,0-1.144,0H29.921c-.761,0-1.524-.018-2.284,0-.487.017-.77-.052-.773-.665,0-.637.253-.765.816-.751,1.293.03,2.59.013,3.883,0,.288,0,.652.09.678-.384s-.258-.542-.648-.575Zm-8.349,0c-1.1-.11-2.2-.214-3.29-.361-1.164-.153-1.425-.928-1.38-1.978a1.575,1.575,0,0,1,1.621-1.7c1.6-.078,3.2-.013,4.8-.045.6-.013.534.349.558.74.032.5-.15.665-.648.653-1.1-.032-2.209-.043-3.311,0-.386.018-1.06-.332-1.115.369s.64.47,1.037.524c.831.111,1.662.143,2.493.251,1.391.183,1.863.758,1.8,2.126-.061,1.33-.512,1.745-1.963,1.78-.723.018-1.446,0-2.169,0h0c-.725,0-1.448-.01-2.171,0-.515.01-.937.068-.926-.725.012-.831.515-.665.984-.665,1.218,0,2.437,0,3.657-.008.316,0,.725.128.718-.445,0-.5-.334-.494-.688-.529ZM17.2,27.511c.01.8-.554.554-.951.563s-.957.206-.926-.58c.037-.909,0-1.82,0-2.731,0-.831.043-1.662-.013-2.493-.052-.771.45-.64.883-.622s1.021-.221,1,.638c-.027,1.727-.013,3.479.012,5.216Zm-7.354-1.12a11.561,11.561,0,0,0-2.1-2.914c0,1.3-.03,2.606.013,3.906.02.613-.181.795-.778.76-.524-.03-.951.038-.926-.741.057-1.674.038-3.351,0-5.027-.01-.563.194-.691.726-.71,1.358-.043,2.563-.088,3.243,1.541a23.015,23.015,0,0,0,2.355,3.506c0-1.594.035-2.871-.013-4.144-.027-.665.125-.936.864-.916.665.018.831.228.809.854-.04,1.636-.035,3.275,0,4.912.01.537-.155.665-.7.733-1.574.168-2.769-.158-3.5-1.769ZM29.555,43.745c-7.734.081-15.686-4.872-18.032-11.365,11.994.61,23.884.628,35.807.048C45.562,37.2,39.3,43.643,29.555,43.745ZM52.349,27.214c.017.645-.106.873-.848.944a2.945,2.945,0,0,1-3.373-1.792,26.945,26.945,0,0,0-1.88-2.95l-.2.071c0,1.292-.043,2.585.017,3.875.033.728-.306.773-.881.776s-.813-.1-.8-.74c.045-1.674.033-3.349,0-5.025-.008-.535.153-.665.7-.725,1.536-.155,2.7.166,3.414,1.727a22.669,22.669,0,0,0,1.815,2.847l.322-.047c0-1.185.018-2.372-.008-3.557-.013-.6,0-.969.811-.982.831-.013.918.332.9,1.009Q52.3,24.935,52.349,27.214Zm.982-5.806c-.032.178-.166.236-.332.236-.155-.043-.141-.135-.045-.216a3.131,3.131,0,0,1,.332-.228.68.68,0,0,1,.045.208Z" transform="translate(-0.039 -0.002)" fill="#121212"/>
    <path id="Trazado_11845" data-name="Trazado 11845" d="M154.689,167.339c.093.274-.075.332-.288.332-.273,0-.565-.052-.534-.416.02-.236.166-.364.459-.366C154.7,166.887,154.615,167.156,154.689,167.339Z" transform="translate(-128.297 -139.15)" fill="#121212"/>
    <path id="Trazado_11846" data-name="Trazado 11846" d="M162.6,127.343c.07-.64.244-.871.768-.814Z" transform="translate(-135.579 -105.491)" fill="#121212"/>
    <path id="Trazado_11847" data-name="Trazado 11847" d="M151.533,35.28l.269.166a3.087,3.087,0,0,1-.377.234c-.042.018-.123-.048-.185-.075Z" transform="translate(-126.107 -29.416)" fill="#121212"/>
    <path id="Trazado_11848" data-name="Trazado 11848" d="M208.4,136.118a.57.57,0,0,1-.673-.145C208,135.864,208.227,135.814,208.4,136.118Z" transform="translate(-173.208 -113.302)" fill="#121212"/>
    <path id="Trazado_11849" data-name="Trazado 11849" d="M128.607,257.643a1.387,1.387,0,0,1-.409.1c-.145-.008-.153-.133-.032-.2a2.6,2.6,0,0,1,.414-.148Z" transform="translate(-106.798 -214.615)" fill="#121212"/>
    <path id="Trazado_11850" data-name="Trazado 11850" d="M229.986,140.891c-.314.017-.5.038-.682.032-.59-.022-1.6.118-1.694-.115-.273-.665.349-1.3.617-1.94.243-.583.642-.638.929.012S229.692,140.172,229.986,140.891Z" transform="translate(-189.727 -115.405)" fill="#121212"/>
  </g>
</svg>
