<svg id="Group_53361" data-name="Group 53361" xmlns="http://www.w3.org/2000/svg" xmlns:xlink="http://www.w3.org/1999/xlink" width="103.673" height="71.724" viewBox="0 0 103.673 71.724">
  <defs>
    <clipPath id="clip-path">
      <rect id="Rectangle_2836" data-name="Rectangle 2836" width="103.673" height="71.724" fill="#121212"/>
    </clipPath>
  </defs>
  <g id="Group_53360" data-name="Group 53360" clip-path="url(#clip-path)">
    <path id="Path_781" data-name="Path 781" d="M272.49,132.586a1.907,1.907,0,0,0-1.722.824,5.331,5.331,0,0,0,0,4.762,1.9,1.9,0,0,0,1.72.834,1.919,1.919,0,0,0,1.728-.834,4.29,4.29,0,0,0,.57-2.386,4.247,4.247,0,0,0-.57-2.377,1.924,1.924,0,0,0-1.728-.824" transform="translate(-207.386 -102.118)" fill="#121212"/>
    <path id="Path_782" data-name="Path 782" d="M168.809,132.421a1.926,1.926,0,0,0-1.719.863,3.457,3.457,0,0,0-.485,1.4l4.286,0a2.923,2.923,0,0,0-.4-1.4,1.873,1.873,0,0,0-1.685-.863" transform="translate(-127.871 -101.991)" fill="#121212"/>
    <path id="Path_783" data-name="Path 783" d="M109.009,147.86a1.3,1.3,0,0,0-.536,1.149,1.4,1.4,0,0,0,.181.773,1.145,1.145,0,0,0,.346.352,2.725,2.725,0,0,0,1.761.346,12.449,12.449,0,0,0,1.623-.212v-2.7a12.311,12.311,0,0,0-1.632-.137,2.708,2.708,0,0,0-1.743.429" transform="translate(-83.254 -113.551)" fill="#121212"/>
    <path id="Path_784" data-name="Path 784" d="M375.8,132.421a1.919,1.919,0,0,0-1.717.863,3.433,3.433,0,0,0-.486,1.4l4.286,0a2.908,2.908,0,0,0-.4-1.4,1.871,1.871,0,0,0-1.684-.863" transform="translate(-286.741 -101.991)" fill="#121212"/>
    <path id="Path_785" data-name="Path 785" d="M81.322,9.715a22.33,22.33,0,0,0-9.04,1.9,18.312,18.312,0,0,0-29.14-3.792A20.19,20.19,0,0,0,7,19.875,19.59,19.59,0,0,0,8.651,27.78,17.29,17.29,0,0,0,20.859,59.664a18.721,18.721,0,0,0,34.652.833,16.454,16.454,0,0,0,21.407-6.644,22.572,22.572,0,0,0,4.4.434,22.285,22.285,0,1,0,0-44.57M22.2,35.578c0,1.8-1.321,2.917-3.448,2.917a6.382,6.382,0,0,1-3.1-.715,6.221,6.221,0,0,1-.591-.354c-.021-.029-.11-.063-.044-.232l.419-1.151a.171.171,0,0,1,.28-.095c.116.069.2.131.35.219a5.065,5.065,0,0,0,2.74.779c.923,0,1.5-.485,1.5-1.135v-.036c0-.711-.882-.979-1.906-1.289l-.226-.069c-1.4-.4-2.9-.967-2.9-2.721v-.034c0-1.666,1.359-2.828,3.307-2.828l.212,0a6.088,6.088,0,0,1,3.047.809.2.2,0,0,1,.1.236c-.038.1-.392,1.044-.433,1.151-.075.2-.282.066-.282.066a6.179,6.179,0,0,0-2.7-.684c-.824,0-1.356.432-1.356,1.019v.035c0,.687.91.979,1.964,1.318l.183.057c1.4.437,2.889,1.042,2.889,2.706Zm8.706,2.339s-.221.06-.421.105-.923.191-1.513.291a11.122,11.122,0,0,1-1.825.151,7.262,7.262,0,0,1-1.592-.161,3.312,3.312,0,0,1-1.223-.524,2.449,2.449,0,0,1-.783-.929,3.054,3.054,0,0,1-.276-1.357,2.827,2.827,0,0,1,.322-1.368,2.876,2.876,0,0,1,.872-.98,3.9,3.9,0,0,1,1.254-.574,5.739,5.739,0,0,1,1.481-.188c.378,0,.693.009.937.027,0,0,.475.042.99.116v-.251c0-.792-.166-1.166-.494-1.416a2.457,2.457,0,0,0-1.485-.384,6.172,6.172,0,0,0-2.618.6.788.788,0,0,1-.1.05.154.154,0,0,1-.2-.1l-.425-1.13a.185.185,0,0,1,.055-.236,5.817,5.817,0,0,1,1.851-.67,10.038,10.038,0,0,1,1.61-.146,4.127,4.127,0,0,1,2.761.821,3.31,3.31,0,0,1,.954,2.623l0,5.431a.187.187,0,0,1-.137.194m4.034.171a.173.173,0,0,1-.172.181H33.174A.173.173,0,0,1,33,38.088V25.412a.172.172,0,0,1,.172-.179h1.594a.172.172,0,0,1,.172.179ZM44.89,34.01a.177.177,0,0,1-.175.155l-6.008,0a2.779,2.779,0,0,0,.7,1.974,2.864,2.864,0,0,0,2.055.7,5.855,5.855,0,0,0,2.467-.438.174.174,0,0,1,.225.1l.395,1.088c.078.184.015.247-.052.284a6.318,6.318,0,0,1-3.026.593,6.094,6.094,0,0,1-2.182-.348,3.991,3.991,0,0,1-1.512-.989,3.923,3.923,0,0,1-.87-1.511,6.283,6.283,0,0,1-.273-1.9,6.592,6.592,0,0,1,.264-1.894,4.285,4.285,0,0,1,.814-1.542A3.936,3.936,0,0,1,39.1,29.239a4.759,4.759,0,0,1,1.985-.381,4.422,4.422,0,0,1,1.72.345,3.488,3.488,0,0,1,1.141.86,3.685,3.685,0,0,1,.768,1.39,6.3,6.3,0,0,1,.18,2.557M49.884,38.5a6.382,6.382,0,0,1-3.1-.715,6.222,6.222,0,0,1-.591-.354c-.021-.029-.11-.063-.044-.232l.421-1.151a.181.181,0,0,1,.279-.095c.113.072.2.131.35.219a5.068,5.068,0,0,0,2.74.779c.925,0,1.5-.485,1.5-1.135v-.036c0-.711-.884-.979-1.908-1.289l-.226-.069c-1.4-.4-2.9-.967-2.9-2.721v-.034c0-1.666,1.359-2.828,3.307-2.828l.212,0a6.084,6.084,0,0,1,3.047.809.2.2,0,0,1,.1.236c-.038.1-.392,1.044-.433,1.151-.075.2-.282.066-.282.066a6.179,6.179,0,0,0-2.7-.684c-.824,0-1.356.432-1.356,1.019v.035c0,.687.91.979,1.964,1.318l.183.057c1.4.437,2.889,1.042,2.889,2.706v.034c0,1.8-1.321,2.917-3.448,2.917m10.5-8.029a.2.2,0,0,1-.2.173H58.2L56.847,38.21a11.275,11.275,0,0,1-.529,2,3.942,3.942,0,0,1-.78,1.33,2.791,2.791,0,0,1-1.111.765,4.436,4.436,0,0,1-1.475.226,3.656,3.656,0,0,1-.881-.083,4.563,4.563,0,0,1-.548-.158.175.175,0,0,1-.093-.236c.043-.119.4-1.081.445-1.208a.168.168,0,0,1,.218-.095,1.43,1.43,0,0,0,.325.1,2.727,2.727,0,0,0,.481.053,2.289,2.289,0,0,0,.707-.1,1.118,1.118,0,0,0,.55-.42,2.967,2.967,0,0,0,.419-.845,9.2,9.2,0,0,0,.36-1.464l1.348-7.434H54.954c-.16,0-.212-.074-.2-.191l.224-1.235a.2.2,0,0,1,.2-.173h1.364l.073-.4a4.886,4.886,0,0,1,1.209-2.693,3.463,3.463,0,0,1,2.544-.9,4.643,4.643,0,0,1,.817.063,4.818,4.818,0,0,1,.594.139.159.159,0,0,1,.11.208L61.436,26.7c-.04.093-.066.151-.261.09-.049-.014-.122-.034-.308-.074a2.607,2.607,0,0,0-.494-.048,2.142,2.142,0,0,0-.644.09,1.258,1.258,0,0,0-.5.31,1.712,1.712,0,0,0-.422.634,7.867,7.867,0,0,0-.317,1.339h1.921c.16,0,.21.074.2.191Zm8.8,5.087a4.208,4.208,0,0,1-.808,1.524,3.815,3.815,0,0,1-1.364,1.017,5.108,5.108,0,0,1-3.8,0,3.8,3.8,0,0,1-1.364-1.017,4.207,4.207,0,0,1-.808-1.524,6.915,6.915,0,0,1,0-3.771,4.187,4.187,0,0,1,.808-1.522A3.867,3.867,0,0,1,63.2,29.234a4.982,4.982,0,0,1,3.806,0,3.877,3.877,0,0,1,1.364,1.024,4.209,4.209,0,0,1,.808,1.524,6.915,6.915,0,0,1,0,3.771m7.427-6.2c-.055.161-.349.976-.451,1.247a.206.206,0,0,1-.221.161,3.349,3.349,0,0,0-.66-.081,2.941,2.941,0,0,0-.8.113,1.829,1.829,0,0,0-.743.441,2.206,2.206,0,0,0-.526.873,5.134,5.134,0,0,0-.2,1.559v4.426a.18.18,0,0,1-.181.179H71.239a.18.18,0,0,1-.183-.179v-8.86a.172.172,0,0,1,.172-.179h1.541a.172.172,0,0,1,.172.179l0,.724a2.688,2.688,0,0,1,1.015-.741,3.017,3.017,0,0,1,1.55-.247,5.527,5.527,0,0,1,1.007.17.161.161,0,0,1,.09.214m7.514,8.665a7.326,7.326,0,0,1-2.514.443,4.515,4.515,0,0,1-3.5-1.3,5,5,0,0,1-1.181-3.491,5.961,5.961,0,0,1,.289-1.89,4.314,4.314,0,0,1,.863-1.524A4.089,4.089,0,0,1,79.5,29.225a4.891,4.891,0,0,1,1.978-.376,9.14,9.14,0,0,1,1.332.087,6.969,6.969,0,0,1,1.184.3.157.157,0,0,1,.111.206c-.166.468-.28.771-.437,1.2-.066.181-.206.121-.206.121a6.019,6.019,0,0,0-1.876-.265,2.331,2.331,0,0,0-1.97.857,3.694,3.694,0,0,0-.681,2.31,3.334,3.334,0,0,0,.762,2.4,2.729,2.729,0,0,0,2.031.751,6.247,6.247,0,0,0,.972-.069,4.043,4.043,0,0,0,.826-.232.169.169,0,0,1,.227.105l.436,1.19a.16.16,0,0,1-.072.209m8.9-4a.177.177,0,0,1-.175.155l-6.008,0a2.781,2.781,0,0,0,.7,1.974,2.861,2.861,0,0,0,2.055.7,5.854,5.854,0,0,0,2.467-.438.174.174,0,0,1,.226.1l.395,1.088c.078.184.015.247-.052.284a6.318,6.318,0,0,1-3.026.593,6.1,6.1,0,0,1-2.182-.348,3.99,3.99,0,0,1-1.511-.989,3.92,3.92,0,0,1-.87-1.511,6.29,6.29,0,0,1-.273-1.9,6.592,6.592,0,0,1,.264-1.894,4.285,4.285,0,0,1,.814-1.542,3.939,3.939,0,0,1,1.384-1.044,4.755,4.755,0,0,1,1.984-.381,4.418,4.418,0,0,1,1.722.345,3.505,3.505,0,0,1,1.141.86,3.685,3.685,0,0,1,.768,1.39,6.3,6.3,0,0,1,.18,2.557" fill="#121212"/>
  </g>
</svg>
