<svg id="southwest-airlines" xmlns="http://www.w3.org/2000/svg" width="136.971" height="20" viewBox="0 0 136.971 20">
  <g id="Grupo_9878" data-name="Grupo 9878">
    <path id="Trazado_12134" data-name="Trazado 12134" d="M115.754,269.006l.826-3.778A15.511,15.511,0,0,0,111.173,264c-5.171,0-6.989,3.117-7.178,5.525-.236,3.07,1.747,4.652,3.849,5.336,3.566,1.157,5.266,1.488,5.077,2.739-.142.921-.708,1.795-2.881,1.795a12.4,12.4,0,0,1-5.313-1.346l-.826,3.8a18.957,18.957,0,0,0,6.187,1.346c4.581,0,7.107-2.763,7.107-6.045,0-2.9-2.267-4.321-4.25-4.935-3.684-1.133-4.841-1.346-4.77-2.739.047-1.11,1.251-1.606,3.117-1.535A15.681,15.681,0,0,1,115.754,269.006Z" transform="translate(-103.9 -263.268)" fill="#121212"/>
    <path id="Trazado_12135" data-name="Trazado 12135" d="M536.864,289.1l.685-3.353a22.472,22.472,0,0,0-4.368-.543c-4.014,0-5.478,2.149-5.62,4.014a4.014,4.014,0,0,0,3.046,4.227c2.763.9,3.778,1.2,3.636,1.889-.094.425-.472.8-2.149.8a10.8,10.8,0,0,1-3.872-.708l-.567,3.188a18.372,18.372,0,0,0,4.793.8c3.684,0,5.738-1.889,5.738-4.439,0-2.243-1.3-3.353-3.4-3.967-2.479-.708-3.448-1.015-3.282-1.677.165-.708.826-.968,2.385-.874A10.24,10.24,0,0,1,536.864,289.1Z" transform="translate(-427.514 -279.462)" fill="#121212"/>
    <path id="Trazado_12136" data-name="Trazado 12136" d="M178.126,292.284a7.013,7.013,0,1,1-7.013-7.084A6.8,6.8,0,0,1,178.126,292.284Zm-7.037-3.447a3.465,3.465,0,1,0,3.117,3.447A3.185,3.185,0,0,0,171.089,288.836Z" transform="translate(-149.885 -279.462)" fill="#121212"/>
    <path id="Trazado_12137" data-name="Trazado 12137" d="M231.749,296.3v-8H227.9v8.524c0,3.259,2.267,4.935,6.187,4.935a21.016,21.016,0,0,0,6.045-.968V288.3h-3.849v9.563a8.3,8.3,0,0,1-2.645.212C232.552,298,231.749,297.533,231.749,296.3Z" transform="translate(-198.62 -281.83)" fill="#121212"/>
    <path id="Trazado_12138" data-name="Trazado 12138" d="M335.784,266.662a12.125,12.125,0,0,0-3.235.614V260.9H328.7v19.929h3.849V270.817a7.593,7.593,0,0,1,2.55-.519c1.346.047,1.889.5,1.889,1.724v8.808h3.849V271.62C340.861,268.338,339.326,266.662,335.784,266.662Z" transform="translate(-275.619 -260.9)" fill="#121212"/>
    <path id="Trazado_12139" data-name="Trazado 12139" d="M293.92,285.525c-2.668.59-3.188,0-3.188-1.37v-5.242H293.9v-3.14h-3.188V271.9H286.86v3.872H284.9v3.14h1.96v5.242c0,3.92,1.488,6.21,7.438,4.51Z" transform="translate(-242.161 -269.303)" fill="#121212"/>
    <path id="Trazado_12140" data-name="Trazado 12140" d="M582.6,285.525c-2.668.59-3.188,0-3.188-1.37v-5.242H582.6v-3.14h-3.188V271.9H575.56v3.872H573.6v3.14h1.96v5.242c0,3.92,1.488,6.21,7.438,4.51Z" transform="translate(-462.691 -269.303)" fill="#121212"/>
    <path id="Trazado_12141" data-name="Trazado 12141" d="M398.308,288.2l-2.432,7.485L393.42,288.2h-3.4l-2.432,7.485-2.432-7.485H381l4.746,13.459h3.542l2.432-7.3,2.456,7.3h3.542l4.746-13.459Z" transform="translate(-315.569 -281.754)" fill="#121212"/>
    <path id="Trazado_12142" data-name="Trazado 12142" d="M481.755,298.116a12.578,12.578,0,0,1-5.242,1.251c-5.1,0-7.013-3.164-7.013-7.084,0-4.014,2.621-7.084,7.013-7.084,4.085,0,6.116,3.211,5.95,7.084-.024.449-.071.9-.118,1.346h-8.713c.142.826.756,2.361,3.235,2.361a9.161,9.161,0,0,0,4.274-.992Zm-3.259-7.084c-.165-1.558-.921-2.715-2.314-2.715-1.275,0-2.2,1.157-2.479,2.715Z" transform="translate(-383.172 -279.462)" fill="#121212"/>
  </g>
  <g id="Grupo_9880" data-name="Grupo 9880" transform="translate(121.966 5.706)">
    <path id="Trazado_12143" data-name="Trazado 12143" d="M634.9,287.246c-1.511-2.975-5.62-2.385-6.966-1.275-1.346-1.086-5.455-1.7-6.966,1.275-1.724,3.4.732,8.028,6.966,12.113C634.163,295.251,636.619,290.647,634.9,287.246Z" transform="translate(-620.427 -285.066)" fill="#121212"/>
    <g id="Grupo_9879" data-name="Grupo 9879" transform="translate(0.342 0.339)">
      <path id="Trazado_12144" data-name="Trazado 12144" d="M660.559,291.506a4.753,4.753,0,0,0-.425-3.022,3.828,3.828,0,0,0-3.566-1.983,5.752,5.752,0,0,0-2.668.708A73.153,73.153,0,0,1,660.559,291.506Z" transform="translate(-646.338 -286.5)" fill="#121212"/>
      <path id="Trazado_12145" data-name="Trazado 12145" d="M621.95,300.3c-.567,3.093,2.007,6.895,7.06,10.248a29.124,29.124,0,0,0,2.857-2.172C630.923,307.573,625.634,303.134,621.95,300.3Z" transform="translate(-621.873 -297.041)" fill="#121212"/>
      <path id="Trazado_12146" data-name="Trazado 12146" d="M632.955,297.149a12.209,12.209,0,0,0,3.235-4.7,50.715,50.715,0,0,0-6.824-4.982,5.284,5.284,0,0,0-3.07-.968,3.807,3.807,0,0,0-3.565,1.983,4.209,4.209,0,0,0-.331.85C626.3,291.955,632.01,296.417,632.955,297.149Z" transform="translate(-622.275 -286.5)" fill="#121212"/>
    </g>
  </g>
</svg>
